{"title":"Dexter.S06E07.HDTV.XviD-LOL","uid":6817139,"size":576604988,"categoryP":"video","categoryS":"tv_shows","magnet":"?xt=urn:btih:c91a8a926a03ce8a88628ad78957308725e56416&amp;dn=Dexter.S06E07.HDTV.XviD-LOL&amp;tr=udp%3A%2F%2Ftracker.openbittorrent.com%3A80&amp;tr=udp%3A%2F%2Fopen.demonii.com%3A1337&amp;tr=udp%3A%2F%2Ftracker.coppersurfer.tk%3A6969&amp;tr=udp%3A%2F%2Fexodus.desync.com%3A6969","seeders":1,"leechers":1,"uploader":"TvFreak","files":-1,"time":1321259220,"description":"Dexter.S06E07.HDTV.XviD-LOL\n\n\nI have stopped ReDecoding my episodes now. Now they will be full sized :) Hope you like it :)\n\n\nSCREENSHOTS:\n\n &lt;a href=&quot;\nhttp://image.bayimg.com/makdeaadp.jpg&quot; rel=&quot;nofollow&quot; target=&quot;_NEW&quot;&gt;\nhttp://image.bayimg.com/makdeaadp.jpg&lt;/a&gt;\n &lt;a href=&quot;\nhttp://image.bayimg.com/makdfaadp.jpg&quot; rel=&quot;nofollow&quot; target=&quot;_NEW&quot;&gt;\nhttp://image.bayimg.com/makdfaadp.jpg&lt;/a&gt;\n &lt;a href=&quot;\nhttp://image.bayimg.com/makdgaadp.jpg&quot; rel=&quot;nofollow&quot; target=&quot;_NEW&quot;&gt;\nhttp://image.bayimg.com/makdgaadp.jpg&lt;/a&gt;\n\n\n\nINFO:\n\n\nFormat                           : AVI\nFormat/Info                      : Audio Video Interleave\nFile size                        : 550 MiB\nDuration                         : 52mn 7s\nOverall bit rate mode            : Variable\nOverall bit rate                 : 1 475 Kbps\nWriting application              : transcode-1.0.6\n\nVideo\nID                               : 0\nFormat                           : MPEG-4 Visual\nFormat profile                   : Advanced Simple@L5\nFormat settings, BVOP            : 2\nFormat settings, QPel            : No\nFormat settings, GMC             : No warppoints\nFormat settings, Matrix          : Default (H.263)\nCodec ID                         : XVID\nCodec ID/Hint                    : XviD\nDuration                         : 52mn 7s\nBit rate                         : 1 290 Kbps\nWidth                            : 624 pixels\nHeight                           : 352 pixels\nDisplay aspect ratio             : 16:9\nFrame rate                       : 23.976 fps\nColor space                      : YUV\nChroma subsampling               : 4:2:0\nBit depth                        : 8 bits\nScan type                        : Progressive\nCompression mode                 : Lossy\nBits/(Pixel*Frame)               : 0.245\nStream size                      : 481 MiB (87%)\nWriting library                  : XviD 1.2.0SMP (UTC 2006-01-08)\n\nAudio\nID                               : 1\nFormat                           : MPEG Audio\nFormat version                   : Version 1\nFormat profile                   : Layer 3\nMode                             : Joint stereo\nMode extension                   : MS Stereo\nCodec ID                         : 55\nCodec ID/Hint                    : MP3\nDuration                         : 52mn 7s\nBit rate mode                    : Variable\nBit rate                         : 165 Kbps\nChannel(s)                       : 2 channels\nSampling rate                    : 48.0 KHz\nCompression mode                 : Lossy\nStream size                      : 64.1 MiB (12%)\nAlignment                        : Aligned on interleaves\nInterleave, duration             : 24 ms (0.58 video frame)\nWriting library                  : LAME3.90.\nEncoding settings                : -m j -V 4 -q 2 -lowpass 18 --abr 165\n\n\n\n","torrent":{"xt":"urn:btih:c91a8a926a03ce8a88628ad78957308725e56416","amp;dn":"Dexter.S06E07.HDTV.XviD-LOL","amp;tr":["udp%3A%2F%2Ftracker.openbittorrent.com%3A80","udp%3A%2F%2Fopen.demonii.com%3A1337","udp%3A%2F%2Ftracker.coppersurfer.tk%3A6969","udp%3A%2F%2Fexodus.desync.com%3A6969"],"infoHash":"c91a8a926a03ce8a88628ad78957308725e56416","infoHashBuffer":{"type":"Buffer","data":[201,26,138,146,106,3,206,138,136,98,138,215,137,87,48,135,37,229,100,22]},"announce":[],"urlList":[]}}